<svg xmlns="http://www.w3.org/2000/svg" width="271.687" height="65.991" viewBox="0 0 271.687 65.991"><g transform="translate(-410.181 -441.721)"><g transform="translate(410.181 441.721)"><g transform="translate(35.764 27.176)"><circle cx="19.408" cy="19.408" r="19.408" fill="#fff"/></g><path d="M520.525,496.893h-9.6a45.577,45.577,0,0,0-91.153,0h-9.6a55.172,55.172,0,0,1,110.344,0Z" transform="translate(-410.181 -441.721)" fill="#fff"/><g transform="translate(123.833 21.124)"><path d="M656.061,484.032h3.5l2.441,7.807,2.41-7.807h3.4l-4.027,10.848h-3.634Z" transform="translate(-656.061 -483.847)" fill="#fff"/><path d="M685.46,493.089h-3.805l-.529,1.791H677.7l4.077-10.848h3.656l4.076,10.848H686Zm-.7-2.345-1.2-3.9-1.186,3.9Z" transform="translate(-666.803 -483.847)" fill="#fff"/><path d="M702.107,491.109l3.19-.2a2.431,2.431,0,0,0,.422,1.184,1.772,1.772,0,0,0,1.48.659,1.639,1.639,0,0,0,1.106-.337,1.009,1.009,0,0,0,.389-.781.994.994,0,0,0-.371-.754,4.282,4.282,0,0,0-1.716-.629,7.293,7.293,0,0,1-3.145-1.317,2.65,2.65,0,0,1-.947-2.095A2.841,2.841,0,0,1,703,485.26a3.213,3.213,0,0,1,1.458-1.169,6.81,6.81,0,0,1,2.668-.426,5.455,5.455,0,0,1,3.171.774,3.334,3.334,0,0,1,1.3,2.46l-3.159.185a1.476,1.476,0,0,0-1.643-1.4,1.345,1.345,0,0,0-.88.248.759.759,0,0,0-.3.6.6.6,0,0,0,.244.466,2.741,2.741,0,0,0,1.125.4,14.066,14.066,0,0,1,3.149.958,3.309,3.309,0,0,1,1.384,1.2,3.049,3.049,0,0,1,.433,1.606,3.44,3.44,0,0,1-.577,1.924,3.613,3.613,0,0,1-1.613,1.336,6.521,6.521,0,0,1-2.612.455q-2.767,0-3.833-1.065A4.2,4.2,0,0,1,702.107,491.109Z" transform="translate(-678.917 -483.665)" fill="#fff"/><path d="M723.486,484.032h10.19v2.679h-3.419v8.169H726.9v-8.169h-3.419Z" transform="translate(-689.529 -483.847)" fill="#fff"/><path d="M753.8,484.032h3.345V490.5a5.435,5.435,0,0,1-.3,1.815,3.921,3.921,0,0,1-.939,1.494,3.741,3.741,0,0,1-1.343.9,6.756,6.756,0,0,1-2.346.363,14.74,14.74,0,0,1-1.728-.111,4.522,4.522,0,0,1-1.565-.44,3.917,3.917,0,0,1-1.15-.935,3.439,3.439,0,0,1-.714-1.25,6.469,6.469,0,0,1-.311-1.834v-6.463h3.345v6.617a1.891,1.891,0,0,0,.492,1.386,2.119,2.119,0,0,0,2.724.007,1.884,1.884,0,0,0,.492-1.394Z" transform="translate(-701.074 -483.847)" fill="#fff"/><path d="M778.863,484.032h3.345V490.5a5.423,5.423,0,0,1-.3,1.815,3.914,3.914,0,0,1-.939,1.494,3.733,3.733,0,0,1-1.343.9,6.756,6.756,0,0,1-2.346.363,14.746,14.746,0,0,1-1.728-.111,4.519,4.519,0,0,1-1.565-.44,3.91,3.91,0,0,1-1.15-.935,3.432,3.432,0,0,1-.714-1.25,6.467,6.467,0,0,1-.311-1.834v-6.463h3.344v6.617a1.889,1.889,0,0,0,.493,1.386,2.118,2.118,0,0,0,2.723.007,1.884,1.884,0,0,0,.492-1.394Z" transform="translate(-713.516 -483.847)" fill="#fff"/><path d="M796.862,484.032h3.352v8.177h5.232v2.671h-8.584Z" transform="translate(-725.95 -483.847)" fill="#fff"/><path d="M816.933,484.032h3.352v8.177h5.232v2.671h-8.584Z" transform="translate(-735.913 -483.847)" fill="#fff"/><path d="M837.268,484.032h3.359V494.88h-3.359Z" transform="translate(-746.006 -483.847)" fill="#fff"/><path d="M847.552,491.109l3.189-.2a2.432,2.432,0,0,0,.422,1.184,1.771,1.771,0,0,0,1.48.659,1.638,1.638,0,0,0,1.106-.337,1.009,1.009,0,0,0,.389-.781.994.994,0,0,0-.37-.754,4.285,4.285,0,0,0-1.717-.629,7.294,7.294,0,0,1-3.145-1.317,2.65,2.65,0,0,1-.947-2.095,2.844,2.844,0,0,1,.484-1.579,3.215,3.215,0,0,1,1.458-1.169,6.808,6.808,0,0,1,2.668-.426,5.455,5.455,0,0,1,3.171.774,3.337,3.337,0,0,1,1.3,2.46l-3.16.185a1.476,1.476,0,0,0-1.642-1.4,1.343,1.343,0,0,0-.88.248.757.757,0,0,0-.3.6.6.6,0,0,0,.244.466,2.744,2.744,0,0,0,1.125.4,14.052,14.052,0,0,1,3.149.958,3.31,3.31,0,0,1,1.383,1.2,3.045,3.045,0,0,1,.434,1.606,3.441,3.441,0,0,1-.578,1.924,3.61,3.61,0,0,1-1.613,1.336,6.518,6.518,0,0,1-2.612.455q-2.767,0-3.833-1.065A4.2,4.2,0,0,1,847.552,491.109Z" transform="translate(-751.111 -483.665)" fill="#fff"/><path d="M877.51,484.032h3.345V490.5a5.435,5.435,0,0,1-.3,1.815,3.926,3.926,0,0,1-.939,1.494,3.741,3.741,0,0,1-1.343.9,6.757,6.757,0,0,1-2.346.363,14.739,14.739,0,0,1-1.727-.111,4.522,4.522,0,0,1-1.565-.44,3.917,3.917,0,0,1-1.15-.935,3.437,3.437,0,0,1-.714-1.25,6.469,6.469,0,0,1-.311-1.834v-6.463H873.8v6.617a1.891,1.891,0,0,0,.492,1.386,2.118,2.118,0,0,0,2.723.007,1.882,1.882,0,0,0,.492-1.394Z" transform="translate(-762.481 -483.847)" fill="#fff"/><path d="M902.576,484.032h3.345V490.5a5.423,5.423,0,0,1-.3,1.815,3.914,3.914,0,0,1-.939,1.494,3.737,3.737,0,0,1-1.343.9,6.756,6.756,0,0,1-2.346.363,14.741,14.741,0,0,1-1.728-.111,4.519,4.519,0,0,1-1.565-.44,3.91,3.91,0,0,1-1.15-.935,3.432,3.432,0,0,1-.714-1.25,6.469,6.469,0,0,1-.311-1.834v-6.463h3.345v6.617a1.889,1.889,0,0,0,.493,1.386,2.118,2.118,0,0,0,2.723.007,1.884,1.884,0,0,0,.492-1.394Z" transform="translate(-774.923 -483.847)" fill="#fff"/><path d="M919.414,491.109l3.19-.2a2.431,2.431,0,0,0,.422,1.184,1.772,1.772,0,0,0,1.48.659,1.64,1.64,0,0,0,1.107-.337,1.011,1.011,0,0,0,.388-.781.994.994,0,0,0-.37-.754,4.281,4.281,0,0,0-1.716-.629,7.293,7.293,0,0,1-3.145-1.317,2.65,2.65,0,0,1-.947-2.095,2.841,2.841,0,0,1,.484-1.579,3.211,3.211,0,0,1,1.458-1.169,6.808,6.808,0,0,1,2.668-.426,5.455,5.455,0,0,1,3.171.774,3.336,3.336,0,0,1,1.3,2.46l-3.159.185a1.476,1.476,0,0,0-1.643-1.4,1.343,1.343,0,0,0-.88.248.757.757,0,0,0-.3.6.6.6,0,0,0,.244.466,2.747,2.747,0,0,0,1.125.4,14.066,14.066,0,0,1,3.149.958,3.316,3.316,0,0,1,1.384,1.2,3.049,3.049,0,0,1,.433,1.606,3.444,3.444,0,0,1-.577,1.924,3.611,3.611,0,0,1-1.614,1.336,6.519,6.519,0,0,1-2.612.455q-2.767,0-3.833-1.065A4.2,4.2,0,0,1,919.414,491.109Z" transform="translate(-786.781 -483.665)" fill="#fff"/><path d="M656.663,520.141h10.19v2.679h-3.419v8.169h-3.352V522.82h-3.419Z" transform="translate(-656.36 -501.771)" fill="#fff"/><path d="M683.462,529.2h-3.805l-.529,1.79h-3.423l4.077-10.848h3.656l4.076,10.848H684Zm-.695-2.346-1.2-3.9-1.186,3.9Z" transform="translate(-665.812 -501.771)" fill="#fff"/><path d="M701.358,530.989V520.141h5.587a8.1,8.1,0,0,1,2.376.267,2.525,2.525,0,0,1,1.324.988,3.063,3.063,0,0,1-.94,4.377,4.07,4.07,0,0,1-1.177.43,3.333,3.333,0,0,1,.872.4,3.392,3.392,0,0,1,.536.57,4.262,4.262,0,0,1,.469.674l1.624,3.143h-3.788l-1.791-3.315a2.524,2.524,0,0,0-.606-.836,1.41,1.41,0,0,0-.821-.252h-.3v4.4Zm3.367-6.453h1.413a5.063,5.063,0,0,0,.888-.148.885.885,0,0,0,.544-.341,1.1,1.1,0,0,0-.122-1.435,2.01,2.01,0,0,0-1.25-.281h-1.473Z" transform="translate(-678.545 -501.771)" fill="#fff"/><path d="M724.941,520.141H728.3v10.848h-3.359Z" transform="translate(-690.251 -501.771)" fill="#fff"/><path d="M736.431,520.141h3.13l4.084,6v-6h3.16v10.848h-3.16l-4.063-5.956v5.956h-3.152Z" transform="translate(-695.954 -501.771)" fill="#fff"/><path d="M766.755,529.2h-3.805l-.529,1.79H759l4.077-10.848h3.656l4.076,10.848H767.3Zm-.7-2.346-1.2-3.9-1.186,3.9Z" transform="translate(-707.156 -501.771)" fill="#fff"/><path d="M780.979,520.141h10.189v2.679H787.75v8.169H784.4V522.82h-3.419Z" transform="translate(-718.066 -501.771)" fill="#fff"/></g></g><rect width="3.238" height="1.563" transform="translate(678.63 468.427)" fill="#fff"/></g></svg>